<svg width="500" height="500" viewBox="0 0 500 500" xmlns="http://www.w3.org/2000/svg">
  <defs>
    <filter id="neon-glow" x="-30%" y="-30%" width="160%" height="160%">
      <feGaussianBlur in="SourceGraphic" stdDeviation="8" result="blur" />
      <feColorMatrix in="blur" type="matrix" values="1 0 0 0 0 0 1 0 0 0 0 0 1 0 0 0 0 0 25 -7" result="glow" />
      <feMerge>
        <feMergeNode in="glow" />
        <feMergeNode in="glow" />
        <feMergeNode in="SourceGraphic" />
      </feMerge>
    </filter>
  </defs>
  <g filter="url(#neon-glow)">
    <path d="M250 50 L423.2 150 V350 L250 450 L76.8 350 V150 Z" fill="none" stroke="#ffffff" stroke-width="12" />
    <path d="M120 170 H155 L200 240 L245 170 H280 V330 H245 V265 L200 330 L155 265 V330 H120 V170 Z M295 170 H380 V205 H330 V245 H380 V330 H295 V295 H345 V265 H295 V170 Z" fill="none" stroke="#00FFFF" stroke-width="3" />
    <path d="M132 188 H158 L200 250 L242 188 H268" stroke="#39FF14" stroke-width="3" fill="none"/>
    <path d="M307 188 H368" stroke="#39FF14" stroke-width="3" fill="none"/>
    <path d="M307 312 H368" stroke="#39FF14" stroke-width="3" fill="none"/>
    <circle cx="132" cy="188" r="4" fill="#39FF14" />
    <circle cx="268" cy="188" r="4" fill="#39FF14" />
    <circle cx="307" cy="188" r="4" fill="#39FF14" />
    <circle cx="368" cy="188" r="4" fill="#39FF14" />
    <circle cx="307" cy="312" r="4" fill="#39FF14" />
    <circle cx="368" cy="312" r="4" fill="#39FF14" />
  </g>
</svg>
